<svg xmlns="http://www.w3.org/2000/svg" xmlns:xlink="http://www.w3.org/1999/xlink" width="1366" zoomAndPan="magnify" viewBox="0 0 1024.5 576" height="768" preserveAspectRatio="xMidYMid meet" version="1.0"><defs><clipPath id="8e6320f427"><path d="M 0 0.140625 L 1024 0.140625 L 1024 575.859375 L 0 575.859375 Z M 0 0.140625 " clip-rule="nonzero"/></clipPath><clipPath id="d140c0095c"><path d="M 108 0.140625 L 149.867188 0.140625 L 149.867188 135.769531 L 108 135.769531 Z M 108 0.140625 " clip-rule="nonzero"/></clipPath><clipPath id="02d8c1c45a"><path d="M 108 541.648438 L 149.867188 541.648438 L 149.867188 575.859375 L 108 575.859375 Z M 108 541.648438 " clip-rule="nonzero"/></clipPath><clipPath id="f57fd749a1"><path d="M 162 0.140625 L 203.679688 0.140625 L 203.679688 195.910156 L 162 195.910156 Z M 162 0.140625 " clip-rule="nonzero"/></clipPath><clipPath id="96370c8db6"><path d="M 162 506.203125 L 203.679688 506.203125 L 203.679688 575.859375 L 162 575.859375 Z M 162 506.203125 " clip-rule="nonzero"/></clipPath><clipPath id="593595caa9"><path d="M 775.449219 0.140625 L 915.78125 0.140625 L 915.78125 171.726562 L 775.449219 171.726562 Z M 775.449219 0.140625 " clip-rule="nonzero"/></clipPath><clipPath id="d1aab8d762"><path d="M 868.976562 167.675781 C 861.808594 170.121094 853.605469 171.726562 845.578125 171.726562 C 837.550781 171.726562 829.824219 170.351562 822.707031 167.902344 C 822.554688 167.828125 822.402344 167.828125 822.25 167.75 C 795.519531 157.964844 775.828125 132.121094 775.449219 101.921875 L 775.449219 -0.988281 L 915.78125 -0.988281 L 915.78125 101.84375 C 915.402344 132.273438 896.015625 158.117188 868.976562 167.675781 Z M 868.976562 167.675781 " clip-rule="nonzero"/></clipPath><clipPath id="6dcaac9d57"><path d="M 0.449219 0.140625 L 140.78125 0.140625 L 140.78125 171.726562 L 0.449219 171.726562 Z M 0.449219 0.140625 " clip-rule="nonzero"/></clipPath><clipPath id="b7edb9d949"><path d="M 93.976562 167.675781 C 86.808594 170.121094 78.605469 171.726562 70.578125 171.726562 C 62.550781 171.726562 54.824219 170.351562 47.707031 167.902344 C 47.554688 167.828125 47.402344 167.828125 47.25 167.75 C 20.519531 157.964844 0.828125 132.121094 0.449219 101.921875 L 0.449219 -0.988281 L 140.78125 -0.988281 L 140.78125 101.84375 C 140.402344 132.273438 121.015625 158.117188 93.976562 167.675781 Z M 93.976562 167.675781 " clip-rule="nonzero"/></clipPath><clipPath id="46d763803b"><rect x="0" width="141" y="0" height="172"/></clipPath><clipPath id="7dd9cc71e0"><path d="M 775.449219 530.191406 L 915.78125 530.191406 L 915.78125 575.859375 L 775.449219 575.859375 Z M 775.449219 530.191406 " clip-rule="nonzero"/></clipPath><clipPath id="88ff58b7f7"><path d="M 868.976562 699.359375 C 861.808594 701.808594 853.605469 703.414062 845.578125 703.414062 C 837.550781 703.414062 829.824219 702.035156 822.707031 699.589844 C 822.554688 699.515625 822.402344 699.515625 822.25 699.4375 C 795.519531 689.652344 775.828125 663.808594 775.449219 633.609375 L 775.449219 530.699219 L 915.78125 530.699219 L 915.78125 633.53125 C 915.402344 663.960938 896.015625 689.804688 868.976562 699.359375 Z M 868.976562 699.359375 " clip-rule="nonzero"/></clipPath><clipPath id="23e45cb07d"><path d="M 0.449219 0.523438 L 140.78125 0.523438 L 140.78125 45.859375 L 0.449219 45.859375 Z M 0.449219 0.523438 " clip-rule="nonzero"/></clipPath><clipPath id="0022cf6709"><path d="M 93.976562 169.359375 C 86.808594 171.808594 78.605469 173.414062 70.578125 173.414062 C 62.550781 173.414062 54.824219 172.035156 47.707031 169.589844 C 47.554688 169.515625 47.402344 169.515625 47.25 169.4375 C 20.519531 159.652344 0.828125 133.808594 0.449219 103.609375 L 0.449219 0.699219 L 140.78125 0.699219 L 140.78125 103.53125 C 140.402344 133.960938 121.015625 159.804688 93.976562 169.359375 Z M 93.976562 169.359375 " clip-rule="nonzero"/></clipPath><clipPath id="528c1c87d5"><rect x="0" width="141" y="0" height="46"/></clipPath><clipPath id="6458d60208"><path d="M 798.8125 423.542969 L 892.433594 423.542969 L 892.433594 517.164062 L 798.8125 517.164062 Z M 798.8125 423.542969 " clip-rule="nonzero"/></clipPath><clipPath id="35f3b1ddd3"><path d="M 845.625 423.542969 L 860.519531 455.460938 L 892.433594 470.355469 L 860.519531 485.25 L 845.625 517.164062 L 830.730469 485.25 L 798.8125 470.355469 L 830.730469 455.460938 Z M 845.625 423.542969 " clip-rule="nonzero"/></clipPath><clipPath id="ae2e1b33ac"><path d="M 0.8125 0.542969 L 94.433594 0.542969 L 94.433594 94.164062 L 0.8125 94.164062 Z M 0.8125 0.542969 " clip-rule="nonzero"/></clipPath><clipPath id="8da33e08f6"><path d="M 47.625 0.542969 L 62.519531 32.460938 L 94.433594 47.355469 L 62.519531 62.25 L 47.625 94.164062 L 32.730469 62.25 L 0.8125 47.355469 L 32.730469 32.460938 Z M 47.625 0.542969 " clip-rule="nonzero"/></clipPath><clipPath id="f3e22516ad"><rect x="0" width="95" y="0" height="95"/></clipPath><clipPath id="6a907de667"><path d="M 215.679688 97.363281 L 309.300781 97.363281 L 309.300781 190.984375 L 215.679688 190.984375 Z M 215.679688 97.363281 " clip-rule="nonzero"/></clipPath><clipPath id="7ce3b303e0"><path d="M 262.492188 97.363281 L 277.386719 129.28125 L 309.300781 144.175781 L 277.386719 159.070312 L 262.492188 190.984375 L 247.59375 159.070312 L 215.679688 144.175781 L 247.59375 129.28125 Z M 262.492188 97.363281 " clip-rule="nonzero"/></clipPath><clipPath id="bc3902701b"><path d="M 0.679688 0.363281 L 94.300781 0.363281 L 94.300781 93.984375 L 0.679688 93.984375 Z M 0.679688 0.363281 " clip-rule="nonzero"/></clipPath><clipPath id="93ac39e332"><path d="M 47.492188 0.363281 L 62.386719 32.28125 L 94.300781 47.175781 L 62.386719 62.070312 L 47.492188 93.984375 L 32.59375 62.070312 L 0.679688 47.175781 L 32.59375 32.28125 Z M 47.492188 0.363281 " clip-rule="nonzero"/></clipPath><clipPath id="8a2ea2863e"><rect x="0" width="95" y="0" height="94"/></clipPath></defs><g clip-path="url(#8e6320f427)"><path fill="#ffffff" d="M 0 0.140625 L 1024 0.140625 L 1024 575.859375 L 0 575.859375 Z M 0 0.140625 " fill-opacity="1" fill-rule="nonzero"/><path fill="#fffbef" d="M 0 0.140625 L 1024 0.140625 L 1024 575.859375 L 0 575.859375 Z M 0 0.140625 " fill-opacity="1" fill-rule="nonzero"/></g><g clip-path="url(#d140c0095c)"><path fill="#ffb568" d="M 149.863281 -61.382812 L 149.863281 135.828125 L 108.207031 135.828125 L 108.207031 -61.382812 Z M 149.863281 -61.382812 " fill-opacity="1" fill-rule="nonzero"/></g><g clip-path="url(#02d8c1c45a)"><path fill="#ffb568" d="M 149.863281 541.648438 L 149.863281 738.863281 L 108.207031 738.863281 L 108.207031 541.648438 Z M 149.863281 541.648438 " fill-opacity="1" fill-rule="nonzero"/></g><g clip-path="url(#f57fd749a1)"><path fill="#ffb568" d="M 203.675781 -1.242188 L 203.675781 195.96875 L 162.019531 195.96875 L 162.019531 -1.242188 Z M 203.675781 -1.242188 " fill-opacity="1" fill-rule="nonzero"/></g><g clip-path="url(#96370c8db6)"><path fill="#ffb568" d="M 203.675781 506.203125 L 203.675781 703.414062 L 162.019531 703.414062 L 162.019531 506.203125 Z M 203.675781 506.203125 " fill-opacity="1" fill-rule="nonzero"/></g><g clip-path="url(#593595caa9)"><g clip-path="url(#d1aab8d762)"><g transform="matrix(1, 0, 0, 1, 775, -0.000000000000058398)"><g clip-path="url(#46d763803b)"><g clip-path="url(#6dcaac9d57)"><g clip-path="url(#b7edb9d949)"><path fill="#ffb568" d="M 140.78125 171.726562 L 0.449219 171.726562 L 0.449219 -0.945312 L 140.78125 -0.945312 Z M 140.78125 171.726562 " fill-opacity="1" fill-rule="nonzero"/></g></g></g></g></g></g><g clip-path="url(#7dd9cc71e0)"><g clip-path="url(#88ff58b7f7)"><g transform="matrix(1, 0, 0, 1, 775, 530)"><g clip-path="url(#528c1c87d5)"><g clip-path="url(#23e45cb07d)"><g clip-path="url(#0022cf6709)"><path fill="#ffb568" d="M 140.78125 173.414062 L 0.449219 173.414062 L 0.449219 0.738281 L 140.78125 0.738281 Z M 140.78125 173.414062 " fill-opacity="1" fill-rule="nonzero"/></g></g></g></g></g></g><g clip-path="url(#6458d60208)"><g clip-path="url(#35f3b1ddd3)"><g transform="matrix(1, 0, 0, 1, 798, 423)"><g clip-path="url(#f3e22516ad)"><g clip-path="url(#ae2e1b33ac)"><g clip-path="url(#8da33e08f6)"><path fill="#ffb568" d="M 0.8125 0.542969 L 94.433594 0.542969 L 94.433594 94.164062 L 0.8125 94.164062 Z M 0.8125 0.542969 " fill-opacity="1" fill-rule="nonzero"/></g></g></g></g></g></g><g clip-path="url(#6a907de667)"><g clip-path="url(#7ce3b303e0)"><g transform="matrix(1, 0, 0, 1, 215, 97)"><g clip-path="url(#8a2ea2863e)"><g clip-path="url(#bc3902701b)"><g clip-path="url(#93ac39e332)"><path fill="#ffb568" d="M 0.679688 0.363281 L 94.300781 0.363281 L 94.300781 93.984375 L 0.679688 93.984375 Z M 0.679688 0.363281 " fill-opacity="1" fill-rule="nonzero"/></g></g></g></g></g></g></svg>