<svg xmlns="http://www.w3.org/2000/svg" xmlns:xlink="http://www.w3.org/1999/xlink" width="1366" zoomAndPan="magnify" viewBox="0 0 1024.5 576" height="768" preserveAspectRatio="xMidYMid meet" version="1.0"><defs><clipPath id="c317118b9d"><path d="M 0 0.140625 L 1024 0.140625 L 1024 575.859375 L 0 575.859375 Z M 0 0.140625 " clip-rule="nonzero"/></clipPath><clipPath id="82b4f67fe3"><path d="M 0 0.140625 L 319 0.140625 L 319 203 L 0 203 Z M 0 0.140625 " clip-rule="nonzero"/></clipPath><clipPath id="80918ecec5"><path d="M -82.539062 47.089844 L 311.898438 -62.210938 L 367.550781 138.617188 L -26.886719 247.917969 Z M -82.539062 47.089844 " clip-rule="nonzero"/></clipPath><clipPath id="ad022346aa"><path d="M -82.539062 47.089844 L 311.898438 -62.210938 L 367.550781 138.617188 L -26.886719 247.917969 Z M -82.539062 47.089844 " clip-rule="nonzero"/></clipPath><clipPath id="ed6cf0a4c3"><path d="M -82.539062 47.089844 L 311.898438 -62.210938 L 367.550781 138.617188 L -26.886719 247.917969 Z M -82.539062 47.089844 " clip-rule="nonzero"/></clipPath><clipPath id="d34b8ff9fb"><path d="M 686 0.140625 L 1024 0.140625 L 1024 219 L 686 219 Z M 686 0.140625 " clip-rule="nonzero"/></clipPath><clipPath id="0dcaef6985"><path d="M 928.949219 307.144531 L 666.332031 -6.796875 L 826.175781 -140.511719 L 1088.792969 173.429688 Z M 928.949219 307.144531 " clip-rule="nonzero"/></clipPath><clipPath id="97c573c017"><path d="M 928.949219 307.144531 L 666.332031 -6.796875 L 826.175781 -140.511719 L 1088.792969 173.429688 Z M 928.949219 307.144531 " clip-rule="nonzero"/></clipPath><clipPath id="b21b7fafa8"><path d="M 928.949219 307.144531 L 666.332031 -6.796875 L 826.175781 -140.511719 L 1088.792969 173.429688 Z M 928.949219 307.144531 " clip-rule="nonzero"/></clipPath><clipPath id="bc0a7de926"><path d="M 786 403.144531 L 1024 403.144531 L 1024 575.859375 L 786 575.859375 Z M 786 403.144531 " clip-rule="nonzero"/></clipPath></defs><g clip-path="url(#c317118b9d)"><path fill="#ffffff" d="M 0 0.140625 L 1024 0.140625 L 1024 575.859375 L 0 575.859375 Z M 0 0.140625 " fill-opacity="1" fill-rule="nonzero"/><path fill="#fffdf6" d="M 0 0.140625 L 1024 0.140625 L 1024 575.859375 L 0 575.859375 Z M 0 0.140625 " fill-opacity="1" fill-rule="nonzero"/></g><g clip-path="url(#82b4f67fe3)"><g clip-path="url(#80918ecec5)"><g clip-path="url(#ad022346aa)"><g clip-path="url(#ed6cf0a4c3)"><path fill="#f3a45d" d="M 147.105469 199.710938 C 145.328125 200.203125 143.503906 200.621094 141.628906 200.964844 C 127.890625 203.488281 112.625 201.71875 98.648438 195.980469 C 84.523438 190.179688 71.578125 180.609375 61.214844 168.308594 C 51.476562 156.753906 44.507812 143.195312 41.582031 130.128906 C 41.355469 129.125 41.152344 128.117188 40.964844 127.109375 C 13.027344 140.535156 -5.894531 163.78125 -10.992188 191.992188 L -44.058594 185.949219 C -39.832031 162.578125 -28.710938 141.128906 -11.890625 123.910156 C 2.675781 109 21.402344 97.40625 42.664062 90.078125 C 45.132812 80.953125 49.078125 71.847656 54.664062 62.339844 C 62.140625 49.625 75.0625 35.941406 92.039062 22.761719 C 109.425781 9.265625 130.378906 -3.128906 152.628906 -13.074219 C 177.851562 -24.351562 204.03125 -32.300781 230.445312 -36.707031 C 260.582031 -41.734375 290.300781 -41.96875 318.773438 -37.410156 L 313.515625 -4.160156 C 266.828125 -11.636719 214.566406 -3.878906 166.355469 17.675781 C 122.859375 37.125 93.464844 62.71875 83.621094 79.460938 C 83.003906 80.507812 82.414062 81.550781 81.855469 82.582031 C 88.003906 82.351562 94.144531 82.558594 100.171875 83.210938 C 109.332031 84.199219 118.136719 86.21875 126.347656 89.214844 C 135.4375 92.527344 143.847656 97.058594 151.347656 102.675781 C 163.441406 111.742188 172.808594 123.960938 177.714844 137.074219 C 183.285156 151.953125 182.703125 166.609375 176.078125 178.335938 C 170.25 188.652344 160.082031 196.113281 147.105469 199.707031 Z M 73.441406 117.097656 C 73.632812 119.003906 73.941406 120.898438 74.367188 122.792969 C 77.65625 137.480469 91.417969 156.636719 111.359375 164.824219 C 119.335938 168.097656 128.144531 169.199219 135.53125 167.84375 C 141.011719 166.832031 145.234375 164.546875 146.832031 161.71875 C 148.429688 158.894531 148.210938 154.085938 146.257812 148.859375 C 143.621094 141.8125 138.148438 134.804688 131.242188 129.632812 C 114.167969 116.832031 92 114.558594 73.441406 117.097656 Z M 73.441406 117.097656 " fill-opacity="1" fill-rule="nonzero"/></g></g></g></g><g clip-path="url(#d34b8ff9fb)"><g clip-path="url(#0dcaef6985)"><g clip-path="url(#97c573c017)"><g clip-path="url(#b21b7fafa8)"><path fill="#f3a45d" d="M 972.953125 34.941406 C 974.136719 36.355469 975.273438 37.84375 976.363281 39.410156 C 984.34375 50.878906 989.042969 65.507812 989.59375 80.605469 C 990.152344 95.863281 986.792969 111.609375 979.878906 126.132812 C 973.382812 139.777344 963.921875 151.730469 953.234375 159.796875 C 952.414062 160.417969 951.582031 161.019531 950.742188 161.605469 C 974.515625 181.492188 1003.503906 189.105469 1031.300781 182.085938 L 1039.46875 214.691406 C 1016.445312 220.507812 992.3125 219.246094 969.683594 211.054688 C 950.082031 203.957031 931.785156 191.699219 916.320312 175.371094 C 906.988281 176.894531 897.070312 177.070312 886.101562 175.914062 C 871.433594 174.363281 853.628906 168.257812 834.613281 158.25 C 815.136719 148 795.183594 134.046875 776.925781 117.898438 C 756.234375 99.597656 738.167969 79.050781 723.234375 56.820312 C 706.195312 31.457031 693.691406 4.496094 686.070312 -23.3125 L 718.519531 -32.273438 C 731.019531 13.324219 759.691406 57.703125 799.253906 92.6875 C 834.945312 124.246094 870.402344 140.429688 889.714844 142.46875 C 890.925781 142.597656 892.117188 142.703125 893.289062 142.785156 C 890.535156 137.28125 888.1875 131.609375 886.285156 125.851562 C 883.398438 117.101562 881.597656 108.246094 880.929688 99.53125 C 880.191406 89.886719 880.835938 80.355469 882.851562 71.207031 C 886.105469 56.441406 893.355469 42.863281 903.265625 32.972656 C 914.511719 21.75 928.097656 16.21875 941.515625 17.402344 C 953.316406 18.441406 964.3125 24.617188 972.953125 34.945312 Z M 928.195312 136.175781 C 929.851562 135.214844 931.449219 134.148438 933 132.976562 C 945.011719 123.910156 956.761719 103.457031 955.96875 81.917969 C 955.652344 73.296875 953.011719 64.824219 948.726562 58.660156 C 945.539062 54.085938 941.710938 51.1875 938.476562 50.902344 C 935.242188 50.617188 930.957031 52.800781 927.007812 56.742188 C 921.679688 62.058594 917.5625 69.9375 915.707031 78.363281 C 911.113281 99.203125 918.207031 120.328125 928.195312 136.175781 Z M 928.195312 136.175781 " fill-opacity="1" fill-rule="nonzero"/></g></g></g></g><g clip-path="url(#bc0a7de926)"><path fill="#f3a45d" d="M 1078.882812 403.144531 C 1003.386719 448.59375 925.113281 520.304688 867.542969 633.421875 L 786.742188 633.421875 C 891.277344 452.886719 1072.066406 406.425781 1078.882812 403.144531 Z M 1078.882812 403.144531 " fill-opacity="1" fill-rule="nonzero"/></g></svg>